<svg xmlns="http://www.w3.org/2000/svg" width="19.992" height="19.992" viewBox="0 0 19.992 19.992">
  <path id="activities_icon" data-name="activities icon" d="M1853.3,74a.74.74,0,0,1-.743-.731.75.75,0,0,1,.743-.74h2.951c2.924,0,4.54-1.6,4.566-4.526V61.537a.729.729,0,0,1,1.458,0V68c0,3.7-2.315,5.992-6.025,5.992ZM1843,68V60.811c0-3.712,2.306-6.012,6.016-6.012h6.5a.742.742,0,0,1,.733.74.734.734,0,0,1-.735.732h-6.5c-2.924,0-4.54,1.612-4.54,4.535V68c0,2.924,1.616,4.526,4.54,4.526a.749.749,0,0,1,.743.74.74.74,0,0,1-.739.735C1845.305,74,1843,71.7,1843,68Zm4.646-.607a.74.74,0,0,1-.132-1.031l2.889-3.75a.745.745,0,0,1,1.042-.132l2.712,2.123,2.386-3.039a.732.732,0,0,1,1.151.878l-2.827,3.637a.788.788,0,0,1-.5.282.742.742,0,0,1-.539-.158l-2.71-2.122-2.438,3.161a.733.733,0,0,1-1.035.151Zm10.148-10.773a2.6,2.6,0,1,1,2.616,2.58h-.017a2.583,2.583,0,0,1-2.6-2.567Zm1.475,0a1.121,1.121,0,1,0,1.125-1.118h0a1.121,1.121,0,0,0-1.12,1.118Z" transform="translate(-1842.999 -54.007)" fill="#fff"/>
</svg>
