<svg xmlns="http://www.w3.org/2000/svg" width="15.01" height="15.034" viewBox="0 0 15.01 15.034">
  <path id="icon" d="M1354,3392.008h-7a3.631,3.631,0,0,1-4-4v-7.014a3.625,3.625,0,0,1,4-4H1354a3.634,3.634,0,0,1,4,4v7.014A3.64,3.64,0,0,1,1354,3392.008Zm-6.253-8.14a.615.615,0,0,0-.622.607c0,.005,0,.011,0,.016a.63.63,0,0,0,.622.631h2.122v2.125a.622.622,0,1,0,1.245,0h0v-2.125h2.129a.627.627,0,0,0,0-1.253h-2.129v-2.118a.622.622,0,1,0-1.245,0h0v2.117Z" transform="translate(-1342.997 -3376.981)" fill="#7a86a1"/>
</svg>
