<svg xmlns="http://www.w3.org/2000/svg" width="15" height="14.999" viewBox="0 0 15 14.999">
  <path id="arrow_copy_2" data-name="arrow copy 2" d="M500.5,693a7.5,7.5,0,1,0,7.5,7.5v-.21A7.5,7.5,0,0,0,500.5,693Zm0,8.234h0l2.2-2.211a.56.56,0,0,1,.791-.011l0,0a.564.564,0,0,1,.169.4.547.547,0,0,1-.169.39l-2.6,2.617a.561.561,0,0,1-.792,0l0,0-2.6-2.617a.526.526,0,0,1-.165-.39.561.561,0,0,1,.165-.405.569.569,0,0,1,.4-.162.55.55,0,0,1,.4.169l2.205,2.212Z" transform="translate(-493 -693.001)" fill="#f96767"/>
</svg>
