<svg xmlns="http://www.w3.org/2000/svg" width="36" height="36" viewBox="0 0 36 36">
  <g id="attachment_file" data-name="attachment file" transform="translate(-1368 -3790)">
    <g id="bg_copy_5" data-name="bg copy 5" transform="translate(1368 3790)" fill="#fff" stroke="#ebebeb" stroke-width="1">
      <rect width="36" height="36" rx="15" stroke="none"/>
      <rect x="0.5" y="0.5" width="35" height="35" rx="14.5" fill="none"/>
    </g>
    <path id="icon_file" data-name="icon file" d="M1383.126,3817a4.189,4.189,0,0,1-4.12-4.239v-9.7a4,4,0,0,1,3.936-4.059h4.66a.408.408,0,0,1,.4.414v2.9a2.977,2.977,0,0,0,2.916,3.006c.373,0,.7,0,.989.006h1.059c.2,0,.428,0,.631,0a.4.4,0,0,1,.393.4v7.236a3.987,3.987,0,0,1-3.919,4.041Zm.009-5.724a.674.674,0,0,0,.655.675h4.748a.674.674,0,0,0,.655-.675.66.66,0,0,0-.655-.667h-4.749a.661.661,0,0,0-.654.666Zm0-4.491a.661.661,0,0,0,.655.666h2.949a.66.66,0,0,0,.655-.666.674.674,0,0,0-.655-.675h-2.95a.674.674,0,0,0-.654.674Zm7.9-2.782a1.8,1.8,0,0,1-1.763-1.815v-2.374a.421.421,0,0,1,.411-.431.411.411,0,0,1,.306.131l3.514,3.768a.436.436,0,0,1-.014.607.416.416,0,0,1-.285.119h-.609c-.55,0-1.118,0-1.559-.006Z" fill="#7a86a1"/>
  </g>
</svg>
