<svg xmlns="http://www.w3.org/2000/svg" xmlns:xlink="http://www.w3.org/1999/xlink" width="123" height="123" viewBox="0 0 123 123">
  <defs>
    <filter id="bg" x="0" y="0" width="123" height="123" filterUnits="userSpaceOnUse">
      <feOffset dx="1.389" dy="7.878" input="SourceAlpha"/>
      <feGaussianBlur stdDeviation="14.5" result="blur"/>
      <feFlood flood-color="#695f97" flood-opacity="0.18"/>
      <feComposite operator="in" in2="blur"/>
      <feComposite in="SourceGraphic"/>
    </filter>
  </defs>
  <g id="button_edit_photo" data-name="button edit photo" transform="translate(-1183.889 -3386.378)">
    <g transform="matrix(1, 0, 0, 1, 1183.89, 3386.38)" filter="url(#bg)">
      <rect id="bg-2" data-name="bg" width="36" height="36" rx="15" transform="translate(42.11 35.62)" fill="#fff"/>
    </g>
    <path id="icon_camera" data-name="icon camera" d="M1248.73,3447h-8.46a3.333,3.333,0,0,1-3.27-3.386V3439a3.333,3.333,0,0,1,3.27-3.387.149.149,0,0,0,.143-.093l.044-.094.062-.136c.2-.428.418-.912.553-1.192a1.822,1.822,0,0,1,1.657-1.1h3.533a1.827,1.827,0,0,1,1.665,1.1c.118.245.3.638.47,1.017l.106.233.075.171a.167.167,0,0,0,.15.093A3.334,3.334,0,0,1,1252,3439v4.615A3.334,3.334,0,0,1,1248.73,3447Zm-4.23-9.021a2.886,2.886,0,0,0-2.093.9,3.062,3.062,0,0,0-.855,2.151,3,3,0,0,0,2.942,3.052h.005a2.875,2.875,0,0,0,2.077-.893,3.125,3.125,0,0,0,.021-4.306l-.013-.014A2.871,2.871,0,0,0,1244.5,3437.979Zm4.207-.186a.7.7,0,1,0,.683.707.689.689,0,0,0-.683-.707h0Zm-4.207,5.128a1.85,1.85,0,0,1-1.823-1.878v-.016a1.85,1.85,0,0,1,.525-1.322,1.777,1.777,0,0,1,2.577-.018,1.939,1.939,0,0,1,.017,2.672A1.789,1.789,0,0,1,1244.5,3442.921Z" fill="#6149cd"/>
  </g>
</svg>
