<svg xmlns="http://www.w3.org/2000/svg" width="19.642" height="19.997" viewBox="0 0 19.642 19.997">
  <path id="chat_icon" data-name="chat icon" d="M47.851,640.762a.751.751,0,0,1-.559-.895.737.737,0,0,1,.878-.57h0a8.342,8.342,0,0,0,9.945-6.466A8.5,8.5,0,0,0,51.768,622.7a8.184,8.184,0,0,0-1.8-.2h-.006a8.422,8.422,0,0,0-8.346,8.495,8.629,8.629,0,0,0,.946,3.934l.188.375a1.994,1.994,0,0,1,.132,1.482q-.3.8-.52,1.633c.551-.169,1.22-.421,1.711-.6l.2-.074a.731.731,0,0,1,.941.45.753.753,0,0,1-.442.959l-.2.073a23.206,23.206,0,0,1-2.4.791.777.777,0,0,1-.174.018,1.172,1.172,0,0,1-.874-.34,1.324,1.324,0,0,1-.331-1,.825.825,0,0,1,.019-.148A17.707,17.707,0,0,1,41.5,636.3a.482.482,0,0,0-.048-.309l-.19-.374a10.091,10.091,0,0,1,4.164-13.489A9.675,9.675,0,0,1,49.964,621h.012a10,10,0,0,1-.009,20,9.653,9.653,0,0,1-2.11-.235ZM53.114,631a1.167,1.167,0,1,1,1.168,1.188A1.178,1.178,0,0,1,53.114,631ZM48.8,631a1.167,1.167,0,1,1,1.168,1.188A1.178,1.178,0,0,1,48.8,631h0Zm-4.328,0a1.167,1.167,0,1,1,1.167,1.189A1.178,1.178,0,0,1,44.468,631Z" transform="translate(-40.143 -621)" fill="#fff"/>
</svg>
