<svg xmlns="http://www.w3.org/2000/svg" width="19.997" height="20" viewBox="0 0 19.997 20">
  <path id="dashboard_icon" data-name="dashboard icon" d="M54,179a3.086,3.086,0,0,1-3.026-3.1V172.88A3.061,3.061,0,0,1,54,169.792h2.96A3.085,3.085,0,0,1,60,172.88V175.9a3.1,3.1,0,0,1-3.034,3.1Zm-1.4-6.121V175.9a1.433,1.433,0,0,0,.408,1.015,1.369,1.369,0,0,0,.983.421h2.981a1.369,1.369,0,0,0,.983-.421,1.429,1.429,0,0,0,.407-1.015V172.88a1.44,1.44,0,0,0-.41-1.012,1.379,1.379,0,0,0-.99-.421H54a1.418,1.418,0,0,0-1.4,1.433Zm-9.567,6.105A3.133,3.133,0,0,1,40,175.893V172.88a3.124,3.124,0,0,1,.889-2.187,2.991,2.991,0,0,1,2.145-.9h1.216a.809.809,0,0,1,.779.386.847.847,0,0,1,0,.884.811.811,0,0,1-.779.387H43.035a1.425,1.425,0,0,0-1.41,1.43v2.984a1.454,1.454,0,0,0,1.41,1.43h2.979a1.382,1.382,0,0,0,1-.421,1.444,1.444,0,0,0,.414-1.015v-4.476a.842.842,0,0,1,.365-.856.8.8,0,0,1,.915.026.843.843,0,0,1,.316.876v4.462a3.066,3.066,0,0,1-3.034,3.1h0Zm12.747-10.746a.836.836,0,0,1,0-1.659h1.188a1.393,1.393,0,0,0,1-.432,1.459,1.459,0,0,0,.4-1.028V162.1a1.435,1.435,0,0,0-1.4-1.43H54a1.417,1.417,0,0,0-1.4,1.43v4.519a.833.833,0,0,1-.835.815.8.8,0,0,1-.569-.258.836.836,0,0,1-.215-.595V162.1a3.122,3.122,0,0,1,.883-2.191A2.994,2.994,0,0,1,54,159h2.96a3.133,3.133,0,0,1,3.025,3.1v3.013a3.123,3.123,0,0,1-.859,2.195,3,3,0,0,1-2.128.933ZM46,168.209H43.035A3.087,3.087,0,0,1,40,165.12V162.1a3.1,3.1,0,0,1,3.034-3.1H46a3.084,3.084,0,0,1,3.03,3.1v3.022a3.1,3.1,0,0,1-.889,2.187A2.976,2.976,0,0,1,46,168.209Zm-3.974-7.132a1.454,1.454,0,0,0-.421,1.021v3.022a1.451,1.451,0,0,0,.41,1.04,1.389,1.389,0,0,0,.988.421h3a1.388,1.388,0,0,0,1-.432,1.45,1.45,0,0,0,.4-1.028V162.1a1.432,1.432,0,0,0-1.4-1.43H43.008A1.379,1.379,0,0,0,42.026,161.077Z" transform="translate(-40.001 -159)" fill="#7a86a1"/>
</svg>
