<svg xmlns="http://www.w3.org/2000/svg" width="15.008" height="14.995" viewBox="0 0 15.008 14.995">
  <path id="icon_dowload" data-name="icon dowload" d="M843.919,4165.786v-3.164a.593.593,0,0,1,.567-.617.587.587,0,0,1,.583.538l.005.079v3.164h3.587a3.485,3.485,0,0,1,3.339,3.456v4.147a3.507,3.507,0,0,1-3.176,3.61h-8.5a3.473,3.473,0,0,1-3.332-3.456V4169.4a3.509,3.509,0,0,1,3.168-3.611l.156,0h3.6v5.051l-1.2-1.305a.547.547,0,0,0-.8-.018l-.017.018a.686.686,0,0,0-.06.811l.06.079,2.184,2.379a.54.54,0,0,0,.762.056l.056-.056,2.183-2.379a.669.669,0,0,0,0-.889.547.547,0,0,0-.75-.061l-.064.061-1.193,1.3v-5.05Z" transform="translate(-836.993 -4162.005)" fill="#6149cd"/>
</svg>
