<svg xmlns="http://www.w3.org/2000/svg" width="14.986" height="14.996" viewBox="0 0 14.986 14.996">
  <path id="Shape_1" data-name="Shape 1" d="M691.388,200.992a.852.852,0,0,1,0-1.7h4.748a.852.852,0,0,1,0,1.7Zm-8.675-.353-.665-2.874a1.777,1.777,0,0,1,.333-1.5l5.186-6.71a.26.26,0,0,1,.353-.045l2.18,1.737a.7.7,0,0,0,.538.152.787.787,0,0,0,.68-.869.877.877,0,0,0-.274-.529l-2.117-1.7a.315.315,0,0,1-.053-.438l.82-1.066a2.147,2.147,0,0,1,3.021-.327q.067.054.13.113l1.227.976a2.551,2.551,0,0,1,.953,1.459,2,2,0,0,1-.406,1.7l-7.306,9.462a1.75,1.75,0,0,1-1.359.68l-2.91.035A.333.333,0,0,1,682.713,200.639Z" transform="translate(-682.001 -185.996)" fill="#fff"/>
</svg>
