<svg xmlns="http://www.w3.org/2000/svg" width="36" height="36" viewBox="0 0 36 36">
  <g id="emoticon" transform="translate(-1322 -3790)">
    <g id="bg_copy_4" data-name="bg copy 4" transform="translate(1322 3790)" fill="#fff" stroke="#ebebeb" stroke-width="1">
      <rect width="36" height="36" rx="15" stroke="none"/>
      <rect x="0.5" y="0.5" width="35" height="35" rx="14.5" fill="none"/>
    </g>
    <path id="icon_smile" data-name="icon smile" d="M1340.5,3801a7.361,7.361,0,0,0-2.631,14.286,2.813,2.813,0,0,1-.272-1.191v-1.354a2.986,2.986,0,0,1-1.446-1.9.483.483,0,0,1,.626-.533,15.543,15.543,0,0,0,7.445,0,.484.484,0,0,1,.626.533,2.986,2.986,0,0,1-1.446,1.9v1.354a2.809,2.809,0,0,1-.272,1.191A7.361,7.361,0,0,0,1340.5,3801Zm-2.419,6.9a.952.952,0,1,1,.968-.952A.959.959,0,0,1,1338.081,3807.9Zm4.839,0a.952.952,0,1,1,.968-.952A.959.959,0,0,1,1342.919,3807.9Zm-1.055,4.006a.762.762,0,0,0-1.047.524l-.054.232a.269.269,0,0,1-.523,0l-.054-.232a.762.762,0,0,0-1.046-.524c-.027.012.009-.006-.572.28v1.875a1.936,1.936,0,0,0,3.871.027v-1.9C1341.849,3811.9,1341.888,3811.92,1341.864,3811.908Z" fill="#7a86a1"/>
  </g>
</svg>
