<svg xmlns="http://www.w3.org/2000/svg" width="14.998" height="10" viewBox="0 0 14.998 10">
  <path id="icon_reply_copy" data-name="icon reply copy" d="M1220.612,864a4.176,4.176,0,0,1-1.117-.34,18.832,18.832,0,0,1-4.656-3.16l-.316-.333a3.021,3.021,0,0,1-.234-.278,1.477,1.477,0,0,1-.288-.882,1.544,1.544,0,0,1,.312-.948l.325-.35.073-.075a18.382,18.382,0,0,1,4.9-3.353l.2-.078a3.379,3.379,0,0,1,.795-.2,1.664,1.664,0,0,1,.758.183,1.57,1.57,0,0,1,.672.75,8.17,8.17,0,0,1,.217.887,18.631,18.631,0,0,1,.2,2.876v.295a22.669,22.669,0,0,1-.18,3.073l-.094.453a3.244,3.244,0,0,1-.194.653,1.51,1.51,0,0,1-1.333.828Zm4.044-4.008a.993.993,0,0,1,0-1.984l3.08-.272a1.265,1.265,0,0,1,0,2.53Z" transform="translate(-1214.001 -854)" fill="#c0bdcc"/>
</svg>
