<svg xmlns="http://www.w3.org/2000/svg" width="15" height="15" viewBox="0 0 15 15">
  <path id="icon_share" data-name="icon share" d="M165.011,4274.6A1.607,1.607,0,0,0,163.4,4273H151.618a1.607,1.607,0,0,0-1.607,1.606v11.786a1.607,1.607,0,0,0,1.607,1.607H163.4a1.607,1.607,0,0,0,1.607-1.607Zm-4.821,7.232a1.875,1.875,0,1,1-1.875,1.875h0a2.259,2.259,0,0,1,.058-.464l-2.275-1.365a1.875,1.875,0,1,1,0-2.767l2.275-1.366a1.876,1.876,0,1,1,.552.918l-2.275,1.366a1.881,1.881,0,0,1,0,.93l2.275,1.365A1.868,1.868,0,0,1,160.189,4281.835Z" transform="translate(-150.011 -4272.996)" fill="#7a86a1"/>
</svg>
