<svg xmlns="http://www.w3.org/2000/svg" width="14.985" height="18" viewBox="0 0 14.985 18">
  <path id="icon_file" data-name="icon file" d="M935.126,1012a4.188,4.188,0,0,1-4.12-4.239v-9.7A4,4,0,0,1,934.942,994h4.66a.408.408,0,0,1,.4.414v2.9a2.977,2.977,0,0,0,2.916,3.006c.373,0,.7,0,.989.005h1.059c.2,0,.428,0,.631,0a.4.4,0,0,1,.393.4v7.236a3.986,3.986,0,0,1-3.919,4.041Zm.009-5.723a.674.674,0,0,0,.655.675h4.748a.674.674,0,0,0,.655-.675.661.661,0,0,0-.655-.667h-4.749a.661.661,0,0,0-.654.666Zm0-4.491a.661.661,0,0,0,.655.666h2.949a.661.661,0,0,0,.655-.666.674.674,0,0,0-.655-.675h-2.95a.674.674,0,0,0-.654.674Zm7.9-2.782a1.8,1.8,0,0,1-1.763-1.815v-2.373a.422.422,0,0,1,.411-.431.413.413,0,0,1,.306.131l3.514,3.768a.436.436,0,0,1-.014.607.416.416,0,0,1-.285.118H944.6c-.55,0-1.118,0-1.559-.005Z" transform="translate(-931.006 -994)" fill="#7a86a1"/>
</svg>
