<svg xmlns="http://www.w3.org/2000/svg" width="20" height="19.971" viewBox="0 0 20 19.971">
  <path id="icon_tick" data-name="icon tick" d="M1050.34,387.914h-8.67c-3.391,0-5.67-2.371-5.67-5.9v-8.159c0-3.536,2.279-5.911,5.67-5.911h8.67c3.385,0,5.66,2.375,5.66,5.911v8.159C1056,385.543,1053.725,387.914,1050.34,387.914Zm-7.9-10.859a.873.873,0,0,0-.62,1.5l2.38,2.362a.882.882,0,0,0,1.23,0l4.75-4.743a.876.876,0,0,0-1.24-1.238l-4.13,4.124-1.75-1.747A.868.868,0,0,0,1042.44,377.055Z" transform="translate(-1036 -367.943)" fill="#6149cd"/>
</svg>
