<svg xmlns="http://www.w3.org/2000/svg" width="14.997" height="12.998" viewBox="0 0 14.997 12.998">
  <path id="icon_view_password" data-name="icon view password" d="M1718.325,623.832a.573.573,0,0,1-.066-.707l.022-.03,10.821-11.133a.191.191,0,0,0,.033-.044.251.251,0,0,0,.037-.045l.688-.707a.551.551,0,0,1,.394-.165.537.537,0,0,1,.385.164.566.566,0,0,1,0,.8l-1.331,1.37a11.308,11.308,0,0,1,2.634,3.945.6.6,0,0,1,0,.444c-1.569,3.755-4.355,5.992-7.456,5.992h-.008a6.73,6.73,0,0,1-3.958-1.34l-1.42,1.46a.54.54,0,0,1-.388.165A.519.519,0,0,1,1718.325,623.832Zm4.511-3.847a2.883,2.883,0,0,0,4.057-.772,3.017,3.017,0,0,0,.511-1.714,3.094,3.094,0,0,0-.5-1.694l-.8.824a1.925,1.925,0,0,1,.205.87,1.851,1.851,0,0,1-1.821,1.877,1.777,1.777,0,0,1-.849-.21Zm-5.8-2.262a.581.581,0,0,1,0-.443c1.566-3.75,4.353-5.985,7.448-5.985h.006a6.533,6.533,0,0,1,3,.738l-2.442,2.515a3.315,3.315,0,0,0-.557-.053,2.969,2.969,0,0,0-2.925,3.012,3.562,3.562,0,0,0,.051.572l-2.708,2.786A12.149,12.149,0,0,1,1717.031,617.723Z" transform="translate(-1716.987 -611)" fill="#c0bdcc"/>
</svg>
