<svg xmlns="http://www.w3.org/2000/svg" width="14.986" height="15" viewBox="0 0 14.986 15">
  <path id="icon_project" data-name="icon project" d="M1186.983,3613a2.871,2.871,0,0,1-2.847-2.885l-.054-3.875a.158.158,0,0,1,.067-.129.1.1,0,0,1,.053-.015.151.151,0,0,1,.089.031,12.776,12.776,0,0,0,5.245,1.973.481.481,0,0,0,.075,0,.564.564,0,0,0,.541-.415,1.367,1.367,0,0,1,1.334-1.033h.023a1.367,1.367,0,0,1,1.334,1.033.564.564,0,0,0,.542.415.483.483,0,0,0,.075,0,12.775,12.775,0,0,0,5.245-1.973l.03-.016a.131.131,0,0,1,.06-.014.1.1,0,0,1,.052.014.158.158,0,0,1,.068.129l-.06,3.874a2.871,2.871,0,0,1-2.846,2.886Zm3.951-4.687v.981a.566.566,0,0,0,.562.569.559.559,0,0,0,.563-.555s0-.009,0-.013v-.981a.567.567,0,0,0-.563-.57A.573.573,0,0,0,1190.934,3608.313Zm2.7-1.558a2.472,2.472,0,0,0-2.132-1.237,2.517,2.517,0,0,0-2.153,1.232.245.245,0,0,1-.207.124.2.2,0,0,1-.042,0,11.637,11.637,0,0,1-4.214-1.7l-.72-.5a.215.215,0,0,1-.1-.182c-.022-.38-.06-1.621-.06-1.633a2.878,2.878,0,0,1,2.856-2.894h1.477a2.232,2.232,0,0,1,2.186-1.96h1.934a2.231,2.231,0,0,1,2.189,1.96h1.484a2.878,2.878,0,0,1,2.86,2.894c0,.007-.044.685-.06,1.615a.248.248,0,0,1-.1.192c-.353.26-.688.485-.72.5a11.482,11.482,0,0,1-4.231,1.716.25.25,0,0,1-.043,0,.244.244,0,0,1-.208-.126Zm-4.155-6.8h4.033a1.084,1.084,0,0,0-1.049-.82h-1.935A1.085,1.085,0,0,0,1189.476,3599.959Z" transform="translate(-1184.007 -3598)" fill="#7a86a1"/>
</svg>
