<svg xmlns="http://www.w3.org/2000/svg" width="15" height="12.998" viewBox="0 0 15 12.998">
  <path id="icon_photo_copy" data-name="icon photo copy" d="M988.73,1009h-8.46a3.212,3.212,0,0,1-3.27-3.145v-4.285a3.212,3.212,0,0,1,3.27-3.145.151.151,0,0,0,.143-.087l.044-.087.062-.126c.2-.4.418-.847.553-1.107A1.831,1.831,0,0,1,982.73,996h3.533a1.837,1.837,0,0,1,1.665,1.017c.118.227.3.592.47.944l.106.217.075.159a.17.17,0,0,0,.15.087A3.213,3.213,0,0,1,992,1001.57v4.285A3.213,3.213,0,0,1,988.73,1009Zm-4.23-8.376a3,3,0,0,0-2.093.839,2.741,2.741,0,0,0-.855,2,2.89,2.89,0,0,0,2.942,2.834h.005a2.984,2.984,0,0,0,2.077-.829,2.753,2.753,0,0,0,.021-4l-.013-.012A2.983,2.983,0,0,0,984.5,1000.624Zm4.207-.173a.65.65,0,1,0,.683.656.662.662,0,0,0-.683-.656h0Zm-4.207,4.762a1.785,1.785,0,0,1-1.823-1.745v-.015a1.656,1.656,0,0,1,.525-1.228,1.873,1.873,0,0,1,2.577-.016,1.709,1.709,0,0,1,.017,2.481A1.857,1.857,0,0,1,984.5,1005.213Z" transform="translate(-977 -996.002)" fill="#7a86a1"/>
</svg>
