<svg xmlns="http://www.w3.org/2000/svg" width="13.996" height="14.999" viewBox="0 0 13.996 14.999">
  <path id="icon_conect" data-name="icon conect" d="M151.221,4353.84a3.353,3.353,0,0,1,.306-.326,13.78,13.78,0,0,1,3.6-2.333,3.254,3.254,0,0,1,.838-.24H156a1.14,1.14,0,0,1,1,.584,4.713,4.713,0,0,1,.218.78,15.113,15.113,0,0,1,.134,2.168,12.964,12.964,0,0,1-.156,2.239,5.361,5.361,0,0,1-.162.626,1.139,1.139,0,0,1-.505.532,1.307,1.307,0,0,1-.569.128,3.11,3.11,0,0,1-.749-.2,13.867,13.867,0,0,1-3.682-2.366c-.126-.12-.262-.266-.3-.3a1.049,1.049,0,0,1-.233-.668A1,1,0,0,1,151.221,4353.84Zm1.788-8.205,3.559.193a.7.7,0,1,1,.048,1.4h-.048l-3.556.2a.894.894,0,1,1-.054-1.785h.054Zm5.787-1.35a5.421,5.421,0,0,1,.166-.625,1.136,1.136,0,0,1,.505-.532,1.292,1.292,0,0,1,.568-.128,3.138,3.138,0,0,1,.749.2,13.858,13.858,0,0,1,3.682,2.367c.126.121.262.266.3.3a1.05,1.05,0,0,1,.235.67,1,1,0,0,1-.216.625,3.5,3.5,0,0,1-.311.327,13.83,13.83,0,0,1-3.593,2.332,3.263,3.263,0,0,1-.839.241H160a1.143,1.143,0,0,1-1-.583,4.711,4.711,0,0,1-.223-.781,15.132,15.132,0,0,1-.132-2.169,12.973,12.973,0,0,1,.153-2.238Zm.631,9.484,3.563-.2a.894.894,0,1,1,.054,1.786h-.054l-3.56-.193a.7.7,0,1,1-.048-1.4h.048Z" transform="translate(-151.003 -4343)" fill="#7a86a1"/>
</svg>
