<svg xmlns="http://www.w3.org/2000/svg" width="15" height="15" viewBox="0 0 15 15">
  <path id="icon_print" data-name="icon print" d="M681.136,4325h-5.129a3.33,3.33,0,0,1-3.046-3.533v-.977h-.331a1.632,1.632,0,0,1-1.63-1.629v-.491a1.632,1.632,0,0,1,1.63-1.63h.331v-3.357a3.185,3.185,0,0,1,2.91-3.383h3.445a.325.325,0,0,1,.3.345v2.415a2.371,2.371,0,0,0,2.156,2.505c.278,0,.518,0,.73,0h1.249a.316.316,0,0,1,.291.336v1.138h.331a1.631,1.631,0,0,1,1.629,1.63v.491a1.631,1.631,0,0,1-1.629,1.629h-.331v1.143A3.169,3.169,0,0,1,681.136,4325Zm1.924-7.5a1.132,1.132,0,1,0,.969,1.12A1.055,1.055,0,0,0,683.06,4317.5Zm-8.81,0v1.51h6.53v-1.51Zm9.208-3.325h-.635c-.378,0-.735,0-.968-.005a1.432,1.432,0,0,1-1.3-1.514v-1.977a.336.336,0,0,1,.3-.36.292.292,0,0,1,.229.111l2.6,3.14a.4.4,0,0,1-.01.506A.3.3,0,0,1,683.458,4314.175Z" transform="translate(-671 -4310)" fill="#6149cd"/>
</svg>
