<svg xmlns="http://www.w3.org/2000/svg" width="11.994" height="13.994" viewBox="0 0 11.994 13.994">
  <path id="icon_delete" data-name="icon delete" d="M1183.423,3511.965a1.989,1.989,0,0,1-1.954-1.978c-.209-1.992-.557-6.7-.564-6.748a.569.569,0,0,1,.127-.39.46.46,0,0,1,.348-.162h9.243a.469.469,0,0,1,.348.164.538.538,0,0,1,.121.39c0,.048-.355,4.764-.558,6.748a1.988,1.988,0,0,1-2,1.978c-.86.018-1.7.025-2.536.025C1185.121,3511.992,1184.259,3511.985,1183.423,3511.965Zm-2.944-10.4a.5.5,0,0,1-.476-.513v-.266a.5.5,0,0,1,.476-.513h1.943a.866.866,0,0,0,.827-.71l.1-.477a1.343,1.343,0,0,1,1.274-1.082h2.751a1.34,1.34,0,0,1,1.266,1.05l.109.51a.865.865,0,0,0,.827.711h1.943a.5.5,0,0,1,.477.511h0v.266a.5.5,0,0,1-.475.513Z" transform="translate(-1180.003 -3497.999)" fill="#7a86a1"/>
</svg>
