<svg xmlns="http://www.w3.org/2000/svg" width="15" height="14.997" viewBox="0 0 15 14.997">
  <path id="icon_smile" data-name="icon smile" d="M1246.5,851a7.361,7.361,0,0,0-2.631,14.286,2.809,2.809,0,0,1-.272-1.19v-1.354a2.986,2.986,0,0,1-1.446-1.9.483.483,0,0,1,.626-.533,15.546,15.546,0,0,0,7.446,0,.484.484,0,0,1,.626.533,2.985,2.985,0,0,1-1.446,1.9v1.354a2.809,2.809,0,0,1-.272,1.19A7.361,7.361,0,0,0,1246.5,851Zm-2.419,6.9a.952.952,0,1,1,.968-.953A.959.959,0,0,1,1244.081,857.9Zm4.839,0a.952.952,0,1,1,.968-.953A.959.959,0,0,1,1248.92,857.9Zm-1.055,4.006a.762.762,0,0,0-1.046.524l-.054.232a.269.269,0,0,1-.523,0l-.055-.232a.762.762,0,0,0-1.046-.524c-.027.012.009-.006-.572.28v1.875a1.936,1.936,0,0,0,3.871.027v-1.9C1247.849,861.9,1247.888,861.92,1247.864,861.909Z" transform="translate(-1239 -850.998)" fill="#c0bdcc"/>
</svg>
