<svg xmlns="http://www.w3.org/2000/svg" width="15" height="14.997" viewBox="0 0 15 14.997">
  <path id="icon_smile" data-name="icon smile" d="M892.5,996a7.361,7.361,0,0,0-2.631,14.286,2.809,2.809,0,0,1-.272-1.19v-1.354a2.985,2.985,0,0,1-1.446-1.9.483.483,0,0,1,.626-.533,15.546,15.546,0,0,0,7.445,0,.484.484,0,0,1,.626.533,2.985,2.985,0,0,1-1.446,1.9v1.354a2.81,2.81,0,0,1-.272,1.19A7.361,7.361,0,0,0,892.5,996Zm-2.419,6.9a.953.953,0,1,1,.968-.952A.959.959,0,0,1,890.081,1002.9Zm4.839,0a.953.953,0,1,1,.968-.952A.959.959,0,0,1,894.919,1002.9Zm-1.055,4.006a.762.762,0,0,0-1.046.524l-.054.232a.269.269,0,0,1-.523,0l-.055-.232a.762.762,0,0,0-1.046-.524c-.027.012.009-.006-.572.28v1.875a1.936,1.936,0,0,0,3.871.027v-1.9C893.849,1006.9,893.888,1006.92,893.864,1006.909Z" transform="translate(-885 -995.998)" fill="#6149cd"/>
</svg>
