<svg xmlns="http://www.w3.org/2000/svg" width="14.995" height="17.031" viewBox="0 0 14.995 17.031">
  <path id="icon_calendar" data-name="icon calendar" d="M426.29,904.008h-.009a4.238,4.238,0,0,1-3.116-1.176,4.432,4.432,0,0,1-1.157-3.183L422,892.559a4.394,4.394,0,0,1,1.015-2.98,4.076,4.076,0,0,1,2.738-1.3v-.639a.666.666,0,0,1,.183-.471.628.628,0,0,1,.9.013.661.661,0,0,1,.18.457v.6l4.885-.007v-.6a.663.663,0,0,1,.181-.47.628.628,0,0,1,.9.013.66.66,0,0,1,.181.455v.638a4.1,4.1,0,0,1,2.766,1.266,4.308,4.308,0,0,1,1.049,2.967l.009,7.174A3.988,3.988,0,0,1,432.72,904Zm6.572-4.945a.7.7,0,1,0,.008,0Zm-6.768,0h0a.718.718,0,0,0-.673.732.693.693,0,0,0,.675.681h.033a.668.668,0,0,0,.471-.226.708.708,0,0,0,.179-.511.684.684,0,0,0-.682-.681Zm3.388,0h0a.721.721,0,0,0-.673.733.693.693,0,0,0,.678.681h.03a.7.7,0,0,0,.649-.733.684.684,0,0,0-.682-.681ZM426.091,896h0a.718.718,0,0,0-.673.732.691.691,0,0,0,.676.681h.033a.664.664,0,0,0,.469-.226.709.709,0,0,0,.178-.511.683.683,0,0,0-.681-.681Zm3.389-.03h0a.718.718,0,0,0-.674.732.693.693,0,0,0,.679.681h.03a.7.7,0,0,0,.648-.733.684.684,0,0,0-.681-.681Zm3.39.005h0a.7.7,0,0,0-.673.714v.01a.684.684,0,0,0,.684.681h.016a.7.7,0,0,0-.023-1.4Zm-7.116-6.391c-1.653.17-2.491,1.171-2.489,2.974v.265l12.45-.017v-.3c-.033-1.8-.89-2.786-2.544-2.933v.655a.644.644,0,0,1-.634.653.629.629,0,0,1-.449-.187.666.666,0,0,1-.181-.464v-.689l-4.885.007v.688a.644.644,0,0,1-.637.651.631.631,0,0,1-.446-.186.667.667,0,0,1-.181-.465v-.656Z" transform="translate(-421.996 -886.981)" fill="#6149cd"/>
</svg>
