<svg xmlns="http://www.w3.org/2000/svg" width="14.987" height="17" viewBox="0 0 14.987 17">
  <path id="icon_copy" data-name="icon copy" d="M675.128,4290a4.07,4.07,0,0,1-4.121-4v-9.164a3.891,3.891,0,0,1,3.936-3.833H679.6a.4.4,0,0,1,.4.391v2.737a2.893,2.893,0,0,0,2.916,2.839c.373,0,.7,0,.989,0h1.059c.2,0,.428,0,.631,0a.387.387,0,0,1,.393.381v6.834a3.879,3.879,0,0,1-3.928,3.817Zm.4-7.659a.643.643,0,0,0,.654.629h1.5v1.471a.651.651,0,0,0,1.3.046c0-.015,0-.031,0-.046v-1.471h1.51a.634.634,0,1,0,0-1.267h-1.507v-1.471a.651.651,0,0,0-1.3-.046c0,.015,0,.031,0,.046v1.471h-1.5a.647.647,0,0,0-.658.636Zm7.51-4.616a1.747,1.747,0,0,1-1.763-1.715v-2.24a.409.409,0,0,1,.408-.409.425.425,0,0,1,.309.125l3.514,3.559a.4.4,0,0,1-.013.573.425.425,0,0,1-.286.113h-.569C684.076,4277.733,683.491,4277.73,683.038,4277.725Z" transform="translate(-671.007 -4273)" fill="#7a86a1"/>
</svg>
