<svg xmlns="http://www.w3.org/2000/svg" xmlns:xlink="http://www.w3.org/1999/xlink" width="200" height="50" viewBox="0 0 200 50">
  <defs>
    <linearGradient id="linear-gradient" x1="-0.744" y1="1.4" x2="0.242" y2="0.558" gradientUnits="objectBoundingBox">
      <stop offset="0" stop-color="#843bba"/>
      <stop offset="1" stop-color="#a35dd9"/>
    </linearGradient>
    <linearGradient id="linear-gradient-2" x1="-0.514" y1="0.506" x2="0.585" y2="0.506" xlink:href="#linear-gradient"/>
    <linearGradient id="linear-gradient-3" y1="0.5" x2="1" y2="0.5" gradientUnits="objectBoundingBox">
      <stop offset="0.151" stop-color="#c171f2"/>
      <stop offset="0.861" stop-color="#f773b7"/>
    </linearGradient>
    <linearGradient id="linear-gradient-4" y1="0.891" x2="1" y2="0.109" gradientUnits="objectBoundingBox">
      <stop offset="0" stop-color="#f9b035"/>
      <stop offset="0.53" stop-color="#f98c4e"/>
      <stop offset="1" stop-color="#f96767"/>
    </linearGradient>
  </defs>
  <g id="logo" transform="translate(-40 -36)">
    <text id="Lordwide" transform="translate(103 72)" font-size="30" font-family="Manrope-ExtraBold, Manrope" font-weight="800"><tspan x="0" y="0">Lordwide</tspan></text>
    <g id="shape_3d" data-name="shape 3d" transform="matrix(-1, 0, 0, -1, 184.701, 22.345)">
      <g id="Group_3" data-name="Group 3">
        <g id="Group_2" data-name="Group 2" style="isolation: isolate">
          <path id="Path_1" data-name="Path 1" d="M100.186-43.676c0,.261.012.524.026.787,0,.076.01.152.014.229q.02.3.051.608c.007.07.013.14.021.21q.044.4.1.8c.007.045.016.091.023.136q.054.338.12.676c.016.081.032.161.049.242q.066.323.144.647c.014.058.026.116.041.174.059.241.122.482.19.723.008.027.016.053.024.079.022.076.046.151.068.227q.09.3.187.605c.03.092.061.184.092.276q.1.3.209.593c.029.08.057.16.087.24.1.273.21.546.322.818.013.032.027.063.041.095q.152.362.315.723c.039.087.08.173.12.26q.133.287.274.574c.043.088.087.177.131.265q.163.323.334.643c.03.055.057.11.087.165.008.014.014.029.022.042.129.238.263.474.4.71l.055.1q.246.421.506.837c.053.085.109.169.163.254.122.192.244.383.37.572.071.106.144.211.216.316.114.166.228.333.344.5.08.113.164.225.245.337.113.155.227.31.343.464.087.115.175.228.264.342.116.149.232.3.35.444.092.114.185.227.278.341q.178.217.36.431.144.169.29.336c.062.07.121.142.183.212s.149.163.223.244l.207.227q.265.287.536.567l.114.119q.328.336.666.662c.062.06.125.119.188.179q.251.238.505.472l.234.211q.253.227.509.446c.07.06.139.121.209.18q.358.3.722.593l.079.061q.328.259.662.509l.237.174q.265.194.534.382l.251.175q.3.206.606.4c.057.037.113.075.17.111q.388.247.781.48c.066.039.133.076.2.115q.3.174.6.341l.268.144q.286.152.574.3c.083.041.165.084.249.124.272.132.544.261.818.383q.487.216.968.4l.07.026c.067.026.134.049.2.074q.388.146.77.274l.287.093q.384.121.762.225c.062.017.125.036.187.052q.462.121.915.215c.076.016.151.029.227.043q.35.068.693.119l.266.039c.26.035.518.063.772.084l.106.01c.245.018.487.031.727.037h.314c.244,0,.486-.006.724-.019l.113,0c.264-.017.523-.043.778-.076l.18-.026c.24-.035.476-.075.708-.124l.058-.011c.246-.053.486-.117.722-.186l.17-.051c.234-.073.464-.15.688-.239h0c.148-.059.29-.128.434-.193.1-.046.209-.088.309-.138.151-.075.294-.161.439-.243.087-.05.178-.094.263-.146.159-.1.31-.206.462-.314.065-.045.133-.086.2-.133q.318-.238.614-.5l6.066-5.462q-.3.265-.613.5c-.085.064-.177.119-.265.18-.13.09-.258.184-.394.267-.094.058-.194.107-.291.162-.136.077-.27.158-.411.228-.1.051-.211.093-.316.14-.142.064-.281.132-.427.19-.225.089-.457.167-.692.241l-.169.051c-.236.069-.476.133-.722.186l-.059.011c-.232.049-.468.089-.708.124l-.18.025c-.256.033-.514.06-.778.076l-.113,0c-.238.013-.48.019-.725.019h-.183c-.282,0-.567-.015-.857-.037l-.106-.01c-.255-.021-.513-.05-.773-.085-.088-.012-.176-.025-.265-.038q-.343-.052-.693-.12c-.076-.015-.151-.028-.228-.043q-.454-.095-.915-.215c-.061-.016-.123-.036-.185-.052q-.379-.1-.763-.225l-.287-.093q-.382-.127-.769-.273c-.068-.026-.135-.048-.2-.075-.343-.133-.689-.275-1.037-.429-.274-.122-.547-.25-.818-.383-.083-.04-.166-.083-.249-.124q-.288-.145-.574-.3l-.268-.144q-.3-.166-.6-.341c-.066-.039-.133-.075-.2-.115q-.393-.233-.781-.48l-.17-.112q-.3-.2-.6-.4l-.252-.175q-.268-.188-.533-.381l-.238-.175q-.335-.25-.664-.51l-.076-.059q-.366-.291-.723-.594c-.07-.059-.139-.12-.209-.18q-.257-.221-.509-.446l-.234-.212q-.256-.234-.506-.473c-.062-.059-.125-.117-.186-.177q-.338-.327-.666-.663c-.039-.039-.076-.08-.115-.12q-.271-.28-.536-.567c-.069-.075-.138-.151-.206-.226q-.2-.226-.406-.456-.147-.168-.291-.337-.182-.213-.359-.429c-.094-.114-.187-.227-.279-.342-.118-.146-.233-.294-.349-.443-.089-.115-.178-.228-.265-.344-.116-.153-.229-.308-.342-.463-.082-.113-.165-.224-.246-.338-.117-.164-.23-.33-.343-.5-.073-.106-.147-.211-.218-.318-.125-.188-.247-.378-.368-.568-.055-.086-.112-.172-.166-.259q-.26-.416-.505-.837c-.019-.033-.036-.066-.055-.1-.144-.25-.286-.5-.422-.752-.03-.055-.058-.11-.087-.165q-.171-.321-.334-.643c-.044-.088-.088-.177-.131-.265q-.141-.286-.274-.574c-.04-.086-.08-.172-.119-.259q-.163-.36-.315-.723c-.013-.032-.028-.063-.041-.1q-.169-.408-.322-.818c-.03-.079-.058-.159-.087-.239q-.108-.3-.209-.594-.046-.138-.091-.276-.1-.3-.188-.607c-.022-.075-.046-.15-.067-.225q-.115-.4-.214-.8c-.014-.057-.027-.115-.04-.172q-.078-.324-.144-.648c-.017-.081-.033-.161-.049-.242q-.066-.339-.12-.676c-.007-.045-.016-.091-.023-.136q-.061-.4-.1-.8c-.008-.07-.014-.14-.021-.21q-.031-.306-.051-.609c-.005-.076-.011-.152-.014-.228-.014-.264-.024-.526-.026-.787a13.061,13.061,0,0,1,.833-4.892,9.577,9.577,0,0,1,1.333-2.369q.162-.209.334-.406a8.674,8.674,0,0,1,.731-.743h0l-6.066,5.462C101.359-50.23,100.158-47.363,100.186-43.676Z" fill="url(#linear-gradient)"/>
          <path id="Path_2" data-name="Path 2" d="M106.643-60.765,100.577-55.3q.354-.319.736-.6h0q.381-.284.788-.535l0,0q.406-.249.838-.465l.007,0q.43-.214.884-.393l.028-.01c.17-.067.344-.129.519-.189l.172-.055q.2-.065.406-.123l.182-.051q.242-.065.489-.12l.1-.023c.2-.042.395-.08.6-.114l.168-.026q.225-.035.453-.064l.2-.024c.158-.017.318-.032.479-.043l.158-.013q.317-.02.641-.028h.143c.172,0,.344,0,.519,0l.2.005q.328.009.662.032l.1.006c.25.019.5.044.756.074l.192.024q.33.042.666.1l.132.021q.389.066.784.15l.192.042q.336.074.676.16l.16.04q.4.1.809.227l.187.058q.343.106.69.224l.184.062q.414.145.832.307l.144.058c.355.14.711.287,1.071.447.329.146.656.3.981.459.1.049.2.1.3.15q.346.173.688.355l.321.173q.363.2.723.409c.079.046.159.09.237.137q.472.28.937.576c.067.043.133.088.2.131q.367.237.73.485c.1.069.2.138.3.208q.323.226.641.459c.095.069.19.138.284.208q.4.3.8.611l.092.071q.438.349.867.713c.083.07.165.142.248.213q.308.265.612.537l.28.254q.306.28.606.566c.075.071.15.142.225.214q.405.392.8.8c.044.045.087.092.131.137q.328.339.648.685c.083.09.165.181.247.272q.246.271.488.548.175.2.348.4c.145.17.289.343.431.515.112.136.224.272.334.409.142.177.281.355.42.534.106.136.212.272.316.409.14.185.276.371.412.558.1.134.2.268.293.4.14.2.276.4.413.6.087.127.175.253.26.381.151.226.3.455.443.683.065.1.133.2.2.307q.312.5.607,1c.021.035.04.071.06.107q.263.454.512.912c.036.066.069.132.1.2q.205.384.4.771c.053.106.105.212.157.318q.168.344.329.689c.048.1.1.206.143.309q.2.435.38.871c.015.037.032.074.047.111q.2.49.387.982c.035.095.069.19.1.284q.131.357.252.715.055.164.109.329.119.365.226.73c.027.089.054.178.08.268q.137.482.257.964c.017.068.032.135.048.2q.094.391.174.781c.02.1.039.192.058.287q.079.408.145.814c.009.053.019.107.027.161q.073.479.126.955c.009.084.016.167.025.25q.037.366.061.731c.006.092.012.183.017.274.017.316.029.631.032.944.033,4.422-1.407,7.861-3.876,10.084l6.066-5.462c2.469-2.223,3.908-5.662,3.876-10.084,0-.313-.014-.628-.032-.944,0-.091-.011-.183-.017-.275q-.024-.364-.061-.731c-.009-.083-.016-.167-.025-.25-.035-.318-.076-.636-.126-.956-.008-.053-.018-.107-.027-.161q-.065-.406-.145-.814-.028-.144-.058-.288-.08-.389-.174-.779c-.016-.068-.031-.136-.048-.2-.071-.289-.147-.579-.229-.868-.009-.032-.019-.064-.029-.1-.026-.09-.054-.179-.08-.269-.072-.243-.147-.486-.226-.729q-.053-.165-.109-.329-.121-.357-.251-.714c-.035-.1-.068-.191-.1-.286-.123-.327-.251-.655-.386-.981-.015-.037-.032-.074-.048-.111q-.183-.436-.379-.871c-.047-.1-.095-.206-.143-.309q-.16-.345-.329-.689c-.052-.106-.1-.212-.157-.318q-.195-.387-.4-.771c-.035-.066-.069-.132-.1-.2l-.027-.051c-.156-.286-.317-.571-.481-.854-.022-.038-.042-.076-.064-.114q-.294-.505-.606-1c-.064-.1-.132-.2-.2-.307-.145-.229-.292-.457-.443-.683-.085-.128-.174-.255-.261-.382-.136-.2-.272-.4-.412-.594-.1-.136-.2-.27-.294-.4-.136-.187-.272-.373-.411-.557-.1-.138-.21-.274-.316-.41-.139-.178-.277-.356-.419-.532-.11-.137-.222-.273-.335-.41-.143-.173-.286-.345-.431-.515-.115-.135-.231-.269-.348-.4-.074-.084-.145-.17-.219-.253-.088-.1-.179-.2-.268-.294s-.165-.182-.248-.272q-.319-.345-.645-.682c-.045-.046-.089-.094-.134-.14q-.394-.4-.8-.795c-.074-.072-.15-.142-.225-.214q-.3-.286-.606-.566-.14-.128-.281-.255-.3-.271-.609-.534c-.084-.072-.167-.145-.251-.216-.286-.241-.574-.479-.866-.711l-.1-.075q-.392-.309-.791-.607c-.095-.071-.191-.14-.286-.21q-.317-.232-.638-.457c-.1-.071-.2-.141-.3-.21q-.36-.246-.725-.482c-.068-.044-.136-.09-.2-.133q-.464-.3-.936-.576c-.08-.047-.16-.092-.24-.138q-.358-.209-.72-.407l-.322-.174q-.342-.182-.687-.355c-.1-.05-.2-.1-.3-.15-.325-.159-.651-.313-.98-.458-.36-.159-.716-.307-1.071-.447l-.09-.038-.054-.02q-.418-.162-.831-.307l-.186-.063q-.345-.118-.688-.224l-.187-.058q-.407-.122-.808-.227l-.162-.04q-.339-.086-.674-.159l-.192-.042q-.395-.083-.784-.15l-.132-.021q-.335-.054-.665-.1l-.193-.024c-.254-.03-.506-.055-.756-.074l-.1-.006q-.332-.023-.659-.032l-.105-.005h-.1q-.261,0-.517,0h-.143q-.324.007-.641.028l-.158.013q-.241.018-.478.043l-.2.024q-.229.028-.453.064l-.169.026q-.3.051-.6.114l-.095.023q-.248.056-.49.12l-.182.05c-.137.039-.273.08-.407.123l-.171.055q-.264.089-.522.189l-.022.008h0q-.454.179-.884.393l-.007,0q-.431.215-.838.465l0,0q-.407.25-.788.535h0Q107-61.084,106.643-60.765Z" fill="url(#linear-gradient-2)"/>
          <g id="Group_1" data-name="Group 1">
            <path id="Path_3" data-name="Path 3" d="M117.82-15.693C106.24-20.827,96.785-34.045,96.7-45.22s9.236-16.07,20.816-10.936,21.033,18.351,21.116,29.526S129.4-10.56,117.82-15.693Zm-.276-37.1c-9.655-4.28-17.428-.2-17.358,9.121s7.955,20.343,17.61,24.623,17.428.2,17.358-9.121S127.2-48.516,117.544-52.8" fill="url(#linear-gradient-3)"/>
          </g>
        </g>
      </g>
    </g>
    <circle id="circle_3d" data-name="circle 3d" cx="8.5" cy="8.5" r="8.5" transform="translate(74 44)" fill="url(#linear-gradient-4)"/>
  </g>
</svg>
