<svg xmlns="http://www.w3.org/2000/svg" width="19.946" height="18.952" viewBox="0 0 19.946 18.952">
  <g id="log_out" data-name="log out" transform="translate(-231.991 -997.02)">
    <path id="log_out_icon" data-name="log out icon" d="M236.309,1015.971a4.273,4.273,0,0,1-4.319-4.214.738.738,0,0,1,.747-.729h0a.738.738,0,0,1,.748.728h0a2.793,2.793,0,0,0,2.823,2.755h4.734a2.783,2.783,0,0,0,2.816-2.745v-.892a.748.748,0,1,1,1.5,0v.892a4.262,4.262,0,0,1-4.312,4.2Zm11.512-6.2a.717.717,0,0,1-.018-1.014l.018-.018,1.556-1.51H239.52a.73.73,0,0,1,0-1.46h11.67a.748.748,0,0,1,.691.452.719.719,0,0,1-.164.8l-2.839,2.757a.761.761,0,0,1-1.057,0Zm-15.831-1.329v-7.215a4.263,4.263,0,0,1,4.311-4.2h4.734a4.273,4.273,0,0,1,4.321,4.214v.883a.748.748,0,1,1-1.5,0v-.883a2.793,2.793,0,0,0-2.824-2.755H236.3a2.783,2.783,0,0,0-2.815,2.745v7.215a.748.748,0,0,1-1.5,0Zm16.55-3.491-.716-.69a.716.716,0,0,1-.019-1.013l.019-.019a.758.758,0,0,1,1.057,0l.715.689a.717.717,0,0,1,.023,1.014l-.018.018a.761.761,0,0,1-1.057.005Z" fill="#7a86a1"/>
  </g>
</svg>
