<svg xmlns="http://www.w3.org/2000/svg" xmlns:xlink="http://www.w3.org/1999/xlink" width="159.399" height="40" viewBox="0 0 159.399 40">
  <defs>
    <linearGradient id="linear-gradient" x1="-0.744" y1="1.4" x2="0.242" y2="0.558" gradientUnits="objectBoundingBox">
      <stop offset="0" stop-color="#843bba"/>
      <stop offset="1" stop-color="#a35dd9"/>
    </linearGradient>
    <linearGradient id="linear-gradient-2" x1="-0.514" y1="0.506" x2="0.585" y2="0.506" xlink:href="#linear-gradient"/>
    <linearGradient id="linear-gradient-3" y1="0.5" x2="1" y2="0.5" gradientUnits="objectBoundingBox">
      <stop offset="0.151" stop-color="#c171f2"/>
      <stop offset="0.861" stop-color="#f773b7"/>
    </linearGradient>
    <linearGradient id="linear-gradient-4" y1="0.891" x2="1" y2="0.109" gradientUnits="objectBoundingBox">
      <stop offset="0" stop-color="#f9b035"/>
      <stop offset="0.53" stop-color="#f98c4e"/>
      <stop offset="1" stop-color="#f96767"/>
    </linearGradient>
  </defs>
  <g id="logo" transform="translate(-40 -46)">
    <text id="Lordwide" transform="translate(90.399 74.8)" fill="#fff" font-size="23.999" font-family="Manrope-ExtraBold, Manrope" font-weight="800"><tspan x="0" y="0">Lordwide</tspan></text>
    <g id="shape_3d" data-name="shape 3d" transform="matrix(-1, 0, 0, -1, 154.555, 35.076)">
      <g id="Group_3" data-name="Group 3">
        <g id="Group_2" data-name="Group 2" style="isolation: isolate">
          <path id="Path_1" data-name="Path 1" d="M79.314-34.941c0,.209.01.419.021.63,0,.061.008.122.011.183q.016.243.04.487c.005.056.01.112.016.168q.035.317.083.636c.005.036.012.073.018.109q.043.27.1.541c.012.065.025.129.039.193q.053.258.114.517c.011.046.021.093.032.139.047.193.1.385.15.578l.019.063c.017.061.036.121.054.182q.071.242.148.484c.024.074.048.147.073.221q.08.237.166.474c.023.064.045.128.069.192.082.218.166.437.255.654.01.025.022.05.032.076q.12.29.249.578c.031.069.063.138.095.208q.106.23.217.459c.034.071.069.141.1.212q.129.258.264.515c.023.044.045.088.069.132l.018.034c.1.19.208.379.316.568l.044.079q.195.337.4.67c.042.068.087.135.129.2.1.153.193.306.293.458.056.085.114.169.171.253.09.133.18.266.273.4.064.091.129.18.194.27.09.124.179.248.271.371.069.092.139.183.209.274.091.119.184.238.277.356.073.091.146.182.22.272q.141.173.285.344.114.135.23.268c.049.056.1.114.145.17s.118.13.176.2l.164.182q.21.229.425.454l.09.1q.26.268.527.529c.049.048.1.1.149.143q.2.191.4.378l.185.169q.2.181.4.357c.055.048.11.1.166.144q.283.242.572.475l.062.049q.26.208.524.407l.188.139q.21.155.423.306l.2.14q.238.165.48.322l.134.089q.307.2.618.384l.157.092q.237.139.477.272l.212.116q.226.122.455.237l.2.1c.215.106.43.209.648.306q.386.173.766.323l.055.02c.053.021.106.039.159.059q.307.117.61.219l.227.075q.3.1.6.18l.148.042q.366.1.725.172c.06.013.119.023.179.035q.277.054.549.1l.211.031c.206.028.41.051.611.067l.084.008c.194.015.386.025.575.029H99c.193,0,.385,0,.573-.015l.089,0c.209-.013.414-.035.616-.061l.143-.02c.19-.028.377-.06.56-.1l.046-.009c.195-.043.384-.093.572-.149l.134-.041c.185-.058.368-.12.545-.191h0c.117-.047.23-.1.343-.155.081-.037.166-.07.245-.11.119-.06.233-.129.348-.195.069-.04.141-.075.208-.117.126-.078.245-.165.366-.251.051-.036.106-.069.156-.107q.252-.19.486-.4l4.8-4.369q-.234.212-.486.4c-.068.051-.14.1-.21.144-.1.072-.2.147-.312.213-.075.046-.154.086-.23.129-.108.062-.214.126-.325.182-.081.041-.167.074-.25.112-.112.052-.222.106-.338.152-.178.071-.362.134-.548.193l-.134.041c-.187.055-.377.106-.572.149l-.047.009c-.184.039-.371.071-.56.1l-.142.02c-.2.027-.407.048-.616.061l-.089,0c-.189.01-.38.015-.574.015h-.145c-.223,0-.449-.012-.678-.03l-.084-.008c-.2-.017-.406-.04-.612-.068l-.21-.031q-.272-.041-.549-.1c-.06-.012-.12-.022-.18-.035q-.359-.076-.725-.172l-.147-.042q-.3-.083-.6-.18l-.227-.075q-.3-.1-.609-.218l-.16-.06c-.272-.106-.545-.22-.821-.343-.217-.1-.433-.2-.648-.306l-.2-.1q-.228-.116-.455-.237l-.212-.116q-.239-.133-.476-.272c-.053-.031-.105-.06-.157-.092q-.312-.186-.618-.384l-.135-.089q-.241-.157-.479-.322l-.2-.14q-.212-.15-.422-.305l-.188-.14q-.265-.2-.526-.408l-.06-.047q-.29-.233-.572-.475c-.056-.047-.11-.1-.165-.144q-.2-.176-.4-.357l-.185-.169q-.2-.187-.4-.378c-.049-.047-.1-.094-.148-.142q-.267-.261-.528-.53l-.091-.1q-.215-.224-.424-.453L90.2-25.5q-.162-.181-.321-.365-.116-.134-.231-.27-.144-.17-.284-.343c-.074-.091-.148-.182-.221-.274-.093-.117-.185-.236-.276-.354-.07-.092-.141-.183-.21-.275-.092-.123-.181-.246-.271-.37-.065-.09-.131-.18-.194-.27-.093-.131-.182-.264-.272-.4-.057-.085-.116-.169-.172-.254-.1-.151-.2-.3-.291-.454-.044-.069-.089-.138-.132-.207q-.205-.333-.4-.67l-.044-.079c-.114-.2-.226-.4-.334-.6-.024-.044-.046-.088-.069-.132q-.135-.257-.264-.515c-.035-.071-.069-.141-.1-.212Q86-31.767,85.9-32c-.031-.069-.063-.138-.094-.207q-.129-.288-.249-.578c-.011-.025-.022-.051-.032-.076q-.134-.327-.255-.655c-.024-.063-.046-.127-.069-.191q-.086-.237-.166-.475-.037-.11-.072-.221-.078-.243-.149-.485c-.018-.06-.036-.12-.053-.18q-.091-.321-.17-.642c-.011-.046-.021-.092-.032-.138q-.062-.259-.114-.518c-.013-.065-.026-.129-.038-.193q-.053-.271-.1-.541c-.006-.036-.012-.072-.018-.109q-.048-.319-.083-.636c-.006-.056-.011-.112-.017-.168q-.024-.245-.04-.487c0-.061-.008-.122-.011-.183-.011-.211-.019-.421-.021-.63a10.547,10.547,0,0,1,.66-3.913,7.684,7.684,0,0,1,1.056-1.895q.128-.167.265-.325a6.9,6.9,0,0,1,.579-.594h0l-4.8,4.369A8.7,8.7,0,0,0,79.314-34.941Z" fill="url(#linear-gradient)"/>
          <path id="Path_2" data-name="Path 2" d="M84.426-48.612l-4.8,4.369q.28-.255.582-.483h0q.3-.227.624-.428l0,0q.322-.2.663-.372l.006,0q.34-.171.7-.315l.022-.008c.135-.054.272-.1.411-.151l.136-.044q.159-.052.322-.1l.144-.041q.191-.052.387-.1L83.7-46.3c.155-.034.313-.064.472-.091l.133-.021q.178-.028.359-.051l.16-.019c.125-.014.252-.025.379-.035l.125-.01q.251-.016.507-.023h.113c.136,0,.273,0,.411,0l.158,0q.26.008.524.026l.076,0c.2.015.4.035.6.059l.152.019q.262.034.527.077l.1.016q.308.053.621.12l.152.033q.266.059.535.128l.127.032q.318.084.64.182l.148.046q.272.085.546.18l.145.05q.327.116.659.246l.114.046c.281.112.563.23.848.357.26.117.519.24.777.367.079.039.158.08.237.12q.274.139.545.284l.254.138q.288.159.573.327l.188.109q.374.224.742.461l.158.105q.29.19.578.388l.238.167q.255.18.508.367c.075.055.15.11.225.167q.318.24.63.489l.073.057q.347.279.687.57c.066.056.131.114.2.171q.244.212.485.43l.222.2q.243.224.48.453l.178.171q.321.313.633.636l.1.11q.26.271.513.548c.066.072.131.145.2.217q.195.217.386.438.139.16.276.322c.115.136.229.274.342.412.089.109.177.217.264.327.113.142.223.284.332.427.084.109.168.217.25.327.11.148.219.3.326.446.077.107.156.214.232.322.111.158.219.318.327.477.069.1.139.2.206.3.12.181.235.364.35.547.052.082.106.163.156.246q.247.4.48.8c.016.028.031.057.048.086q.208.363.405.73c.028.053.055.105.082.158q.163.307.317.617c.042.085.083.17.125.254q.133.275.26.551c.038.082.076.165.113.247q.156.348.3.7c.012.029.025.059.037.088q.161.392.306.785c.028.076.055.152.082.228q.1.286.2.572.044.131.086.263.094.292.179.584c.021.071.043.143.063.214q.109.386.2.771c.013.054.025.108.038.162q.074.313.138.625c.016.077.031.153.046.23q.063.326.115.651c.007.043.015.086.021.129q.058.383.1.764c.007.067.013.133.019.2q.029.293.048.585c0,.073.01.147.014.22.013.253.023.5.025.755.026,3.538-1.114,6.289-3.068,8.067l4.8-4.369c1.955-1.779,3.094-4.529,3.068-8.067,0-.25-.011-.5-.025-.755,0-.073-.009-.146-.014-.22q-.019-.292-.048-.585c-.007-.067-.012-.133-.02-.2-.028-.254-.061-.509-.1-.764-.007-.043-.015-.086-.021-.129q-.051-.325-.115-.651-.022-.115-.046-.23-.064-.311-.137-.623c-.013-.054-.024-.109-.038-.163-.056-.231-.116-.463-.181-.695-.007-.025-.015-.051-.023-.076-.02-.072-.042-.143-.063-.215-.057-.194-.116-.389-.179-.583q-.042-.132-.086-.263-.1-.286-.2-.571c-.028-.076-.054-.152-.083-.229q-.146-.393-.306-.785l-.038-.088q-.145-.349-.3-.7c-.037-.082-.075-.165-.113-.247q-.127-.276-.26-.551c-.041-.085-.082-.17-.124-.254q-.154-.309-.317-.617c-.028-.053-.054-.105-.082-.158l-.021-.041c-.123-.229-.251-.456-.381-.683-.017-.03-.033-.061-.051-.091q-.233-.4-.48-.8c-.051-.082-.1-.164-.156-.246-.115-.183-.231-.366-.35-.547-.068-.1-.138-.2-.207-.305-.108-.159-.215-.318-.326-.476-.076-.109-.155-.216-.232-.323-.108-.149-.215-.3-.326-.446-.082-.11-.167-.219-.25-.328-.11-.143-.22-.285-.332-.426-.087-.11-.176-.219-.265-.328-.113-.138-.226-.276-.341-.412-.091-.108-.183-.215-.276-.322-.058-.067-.115-.136-.173-.2s-.142-.157-.212-.235-.13-.146-.2-.218q-.252-.276-.511-.546l-.106-.112q-.312-.323-.633-.636c-.059-.058-.119-.114-.178-.171q-.238-.229-.48-.453-.111-.1-.223-.2-.239-.217-.482-.428l-.2-.173c-.226-.193-.454-.383-.685-.569l-.077-.06q-.31-.247-.626-.486c-.075-.057-.151-.112-.227-.168q-.251-.186-.505-.365l-.24-.168q-.285-.2-.574-.386l-.162-.107q-.367-.237-.741-.46l-.19-.111q-.283-.167-.57-.326l-.255-.139q-.271-.146-.544-.284c-.079-.04-.158-.081-.238-.12-.257-.127-.516-.25-.776-.367-.285-.127-.567-.245-.848-.357l-.071-.03-.043-.016q-.331-.13-.658-.245l-.147-.051q-.273-.094-.545-.179l-.148-.046q-.322-.1-.64-.182l-.128-.032q-.268-.069-.533-.127l-.152-.034q-.313-.067-.621-.12l-.1-.017q-.265-.043-.526-.077l-.153-.019c-.2-.024-.4-.044-.6-.059l-.078,0q-.263-.018-.521-.026l-.083,0h-.076q-.206,0-.41,0h-.114q-.256.006-.507.023l-.125.01q-.191.014-.379.035l-.16.019q-.181.023-.358.051l-.134.021q-.239.041-.472.091l-.075.018q-.2.045-.388.1l-.144.04c-.108.031-.216.064-.322.1l-.136.044q-.209.071-.413.151l-.018.007h0q-.359.143-.7.315l-.006,0q-.342.172-.663.372l0,0q-.322.2-.624.428h0Q84.707-48.867,84.426-48.612Z" fill="url(#linear-gradient-2)"/>
          <g id="Group_1" data-name="Group 1">
            <path id="Path_3" data-name="Path 3" d="M93.274-12.555c-9.168-4.107-16.653-14.681-16.719-23.622s7.312-12.856,16.48-8.749S109.686-30.244,109.752-21.3,102.44-8.448,93.274-12.555Zm-.219-29.683c-7.644-3.424-13.8-.157-13.742,7.3s6.3,16.274,13.941,19.7,13.8.157,13.742-7.3-6.3-16.274-13.941-19.7" fill="url(#linear-gradient-3)"/>
          </g>
        </g>
      </g>
    </g>
    <circle id="circle_3d" data-name="circle 3d" cx="6.8" cy="6.8" r="6.8" transform="translate(67.2 52.4)" fill="url(#linear-gradient-4)"/>
  </g>
</svg>
