<svg xmlns="http://www.w3.org/2000/svg" width="19.999" height="20" viewBox="0 0 19.999 20">
  <path id="Campaigns_icon" data-name="Campaigns icon" d="M46.253,229C42.392,229,40,226.608,40,222.756v-7.5c0-3.864,2.392-6.256,6.253-6.256h7.493c3.844,0,6.254,2.392,6.254,6.253v2.322a.764.764,0,0,1-.763.765h-.011a.756.756,0,0,1-.756-.756c0-.006,0-.012,0-.018v-2.313c0-3.043-1.68-4.723-4.723-4.723H46.253c-3.053,0-4.723,1.68-4.723,4.723v7.5c0,3.043,1.68,4.714,4.723,4.714h7.493c3.052,0,4.723-1.68,4.723-4.714a.765.765,0,1,1,1.53,0c0,3.855-2.391,6.247-6.243,6.247Zm-.553-4.521a.765.765,0,0,1-.738-.791v-6.4a.757.757,0,0,1,.782-.731h.009a.766.766,0,0,1,.739.792v6.391a.765.765,0,0,1-.765.739Zm3.57-.779v-9.379a.765.765,0,0,1,1.53,0h0V223.7a.765.765,0,1,1-1.53,0Zm4.239-.009V220.7a.765.765,0,0,1,1.531,0v2.991a.765.765,0,0,1-1.531,0Zm-4.239-9.414v0Z" transform="translate(-40 -209)" fill="#7a86a1"/>
</svg>
