<svg xmlns="http://www.w3.org/2000/svg" width="14.984" height="11.96" viewBox="0 0 14.984 11.96">
  <g id="next_inactive_" data-name="next ( inactive )" transform="translate(-915 -1522.025)">
    <path id="next" d="M923.324,1533.793a.648.648,0,0,1-.059-.869l.059-.068,4.329-4.187H915.68a.661.661,0,0,1-.083-1.319l.083,0H929.3a.681.681,0,0,1,.629.409.648.648,0,0,1-.088.652l-.061.066-5.495,5.32a.7.7,0,0,1-.954.008l-.009-.008Zm3.1-7.643-.068-.057-3.035-2.936a.649.649,0,0,1,0-.936.7.7,0,0,1,.895-.061l.071.06,3.031,2.933a.651.651,0,0,1,0,.937.7.7,0,0,1-.893.061Z" fill="#c0bdcc"/>
  </g>
</svg>
