<svg xmlns="http://www.w3.org/2000/svg" width="16.977" height="19.594" viewBox="0 0 16.977 19.594">
  <path id="Notifications_icon" data-name="Notifications icon" d="M46.692,589.954a.731.731,0,0,1,.095-1.043l.005,0a.778.778,0,0,1,1.075.1,2.039,2.039,0,0,0,.417.4,2.009,2.009,0,0,0,2.773-.4h.009a.779.779,0,0,1,1.076-.1.73.73,0,0,1,.105,1.041l-.005.006a3.531,3.531,0,0,1-4.884.658,3.46,3.46,0,0,1-.671-.658Zm-1.639-2.724a4.862,4.862,0,0,1-3.066-1.507,3.95,3.95,0,0,1-.966-2.684v-.12a4.071,4.071,0,0,1,.727-2.057l.072-.089a3.728,3.728,0,0,0,.886-1.724v-1.776a.769.769,0,0,1,.994-.416.752.752,0,0,1,.468.57V579.2a.41.41,0,0,1,0,.1,5.117,5.117,0,0,1-1.223,2.4,2.447,2.447,0,0,0-.389,1.225v.19a2.493,2.493,0,0,0,.584,1.68,3.341,3.341,0,0,0,2.073.966,40.739,40.739,0,0,0,8.576,0,3.345,3.345,0,0,0,2.117-1.009,2.462,2.462,0,0,0,.558-1.629v-.2a2.54,2.54,0,0,0-.38-1.233,5.133,5.133,0,0,1-1.3-2.4.552.552,0,0,1,0-.1v-1.787c-.257-2.6-2.924-4.213-5.244-4.213a5.836,5.836,0,0,0-2.817.715.781.781,0,0,1-.776,0,.73.73,0,0,1-.279-1.007.746.746,0,0,1,.316-.293,7.335,7.335,0,0,1,3.49-.905c3.064,0,6.5,2.12,6.89,5.526v1.776a3.651,3.651,0,0,0,.886,1.724.744.744,0,0,1,.071.1A3.924,3.924,0,0,1,58,582.843l-.027.18a4.009,4.009,0,0,1-.94,2.7,4.914,4.914,0,0,1-3.118,1.509,41.5,41.5,0,0,1-8.858,0Z" transform="translate(-41.02 -571.713)" fill="#fff"/>
</svg>
