<svg xmlns="http://www.w3.org/2000/svg" width="19.988" height="18" viewBox="0 0 19.988 18">
  <path id="inbox_icon" data-name="inbox icon" d="M45.807,540a5.83,5.83,0,0,1-5.8-5.845v-6.31a5.822,5.822,0,0,1,5.8-5.845H54.2a5.84,5.84,0,0,1,5.8,5.845v1.462a.71.71,0,0,1-.706.713h0l-.01-.02a.7.7,0,0,1-.5-.209.716.716,0,0,1-.207-.5v-1.446a4.437,4.437,0,0,0-4.373-4.41H45.807a4.438,4.438,0,0,0-4.373,4.41v6.309a4.438,4.438,0,0,0,4.373,4.411H54.2a4.437,4.437,0,0,0,4.375-4.411.715.715,0,0,1,1.423,0A5.84,5.84,0,0,1,54.2,540Zm2.248-8.02-4.119-3.324a.725.725,0,0,1-.106-1.007.7.7,0,0,1,.983-.113l.007.006,4.153,3.316a1.423,1.423,0,0,0,1.768,0l4.11-3.316h.009a.711.711,0,0,1,.884,1.114l-4.11,3.324A2.837,2.837,0,0,1,48.055,531.98Z" transform="translate(-40.011 -522)" fill="#fff"/>
</svg>
