<svg xmlns="http://www.w3.org/2000/svg" width="20.001" height="20" viewBox="0 0 20.001 20">
  <path id="icon" d="M637.981,643a3.829,3.829,0,0,1-3.8-3.847l-.072-5.166a.211.211,0,0,1,.09-.172.128.128,0,0,1,.071-.02.207.207,0,0,1,.119.041,17.069,17.069,0,0,0,7,2.632.723.723,0,0,0,.1.006.753.753,0,0,0,.722-.554,1.824,1.824,0,0,1,1.78-1.377h.031a1.824,1.824,0,0,1,1.78,1.377.753.753,0,0,0,.723.554.724.724,0,0,0,.1-.006,17.069,17.069,0,0,0,7-2.632l.04-.021a.181.181,0,0,1,.08-.019.131.131,0,0,1,.07.019.211.211,0,0,1,.09.172l-.08,5.165a3.829,3.829,0,0,1-3.8,3.848Zm5.273-6.248v1.307a.755.755,0,0,0,.75.759.746.746,0,0,0,.751-.741c0-.006,0-.012,0-.018v-1.307a.756.756,0,0,0-.751-.76A.765.765,0,0,0,643.254,636.752Zm3.6-2.078a3.3,3.3,0,0,0-2.845-1.649,3.358,3.358,0,0,0-2.873,1.642.326.326,0,0,1-.276.166.283.283,0,0,1-.056,0,15.52,15.52,0,0,1-5.624-2.268l-.961-.669a.289.289,0,0,1-.13-.243c-.029-.507-.08-2.161-.08-2.177a3.839,3.839,0,0,1,3.812-3.858h1.971A2.977,2.977,0,0,1,642.709,623h2.581a2.977,2.977,0,0,1,2.921,2.613h1.981a3.839,3.839,0,0,1,3.817,3.858c0,.009-.059.913-.08,2.154a.329.329,0,0,1-.129.256c-.471.347-.918.647-.961.669a15.328,15.328,0,0,1-5.647,2.288.289.289,0,0,1-.057.005.325.325,0,0,1-.278-.169Zm-5.545-9.061h5.383a1.447,1.447,0,0,0-1.4-1.093h-2.583A1.448,1.448,0,0,0,641.309,625.613Z" transform="translate(-634.009 -623)" fill="#f9b035"/>
</svg>
