<svg xmlns="http://www.w3.org/2000/svg" width="15" height="18.021" viewBox="0 0 15 18.021">
  <path id="icon" d="M365.234,435.009h-7.467A3.768,3.768,0,0,1,354,431.248V426.8a3.743,3.743,0,0,1,2.627-3.567v-1.378a4.873,4.873,0,0,1,8.314-3.442,4.825,4.825,0,0,1,1.432,3.442v1.378A3.743,3.743,0,0,1,369,426.8v4.448A3.768,3.768,0,0,1,365.234,435.009Zm-3.734-7.763a.78.78,0,0,0-.78.779v1.988a.785.785,0,1,0,1.569,0v-1.988A.785.785,0,0,0,361.5,427.245Zm.009-8.691a3.307,3.307,0,0,0-3.312,3.277v1.206H364.8v-1.184a3.3,3.3,0,0,0-3.3-3.3h0Z" transform="translate(-354 -416.988)" fill="#7a86a1"/>
</svg>
