<svg xmlns="http://www.w3.org/2000/svg" xmlns:xlink="http://www.w3.org/1999/xlink" width="123" height="123" viewBox="0 0 123 123">
  <defs>
    <filter id="bg_copy_5" x="0" y="0" width="123" height="123" filterUnits="userSpaceOnUse">
      <feOffset dx="1.389" dy="7.878" input="SourceAlpha"/>
      <feGaussianBlur stdDeviation="14.5" result="blur"/>
      <feFlood flood-color="#695f97" flood-opacity="0.18"/>
      <feComposite operator="in" in2="blur"/>
      <feComposite in="SourceGraphic"/>
    </filter>
  </defs>
  <g id="photo" transform="translate(-1371.889 -3754.378)">
    <g transform="matrix(1, 0, 0, 1, 1371.89, 3754.38)" filter="url(#bg_copy_5)">
      <rect id="bg_copy_5-2" data-name="bg copy 5" width="36" height="36" rx="15" transform="translate(42.11 35.62)" fill="#fff"/>
    </g>
    <path id="icon_photo_copy" data-name="icon photo copy" d="M1436.73,3814h-8.46a3.213,3.213,0,0,1-3.27-3.145v-4.284a3.213,3.213,0,0,1,3.27-3.145.15.15,0,0,0,.143-.086l.044-.087.062-.126c.2-.4.418-.847.553-1.107a1.831,1.831,0,0,1,1.657-1.017h3.533a1.837,1.837,0,0,1,1.665,1.017c.118.227.3.592.47.944l.106.217.075.159a.17.17,0,0,0,.15.086,3.213,3.213,0,0,1,3.271,3.145v4.284A3.213,3.213,0,0,1,1436.73,3814Zm-4.23-8.376a3,3,0,0,0-2.093.839,2.741,2.741,0,0,0-.855,2,2.89,2.89,0,0,0,2.942,2.834h.005a2.985,2.985,0,0,0,2.077-.829,2.754,2.754,0,0,0,.021-4l-.013-.012A2.982,2.982,0,0,0,1432.5,3805.623Zm4.208-.173a.651.651,0,1,0,.683.656.662.662,0,0,0-.683-.656h0Zm-4.208,4.762a1.785,1.785,0,0,1-1.823-1.745v-.015a1.656,1.656,0,0,1,.525-1.227,1.872,1.872,0,0,1,2.577-.016,1.709,1.709,0,0,1,.017,2.481A1.859,1.859,0,0,1,1432.5,3810.213Z" fill="#6149cd"/>
  </g>
</svg>
