<svg xmlns="http://www.w3.org/2000/svg" xmlns:xlink="http://www.w3.org/1999/xlink" width="123" height="123" viewBox="0 0 123 123">
  <defs>
    <filter id="bg" x="0" y="0" width="123" height="123" filterUnits="userSpaceOnUse">
      <feOffset dx="1.389" dy="7.878" input="SourceAlpha"/>
      <feGaussianBlur stdDeviation="14.5" result="blur"/>
      <feFlood flood-color="#695f97" flood-opacity="0.18"/>
      <feComposite operator="in" in2="blur"/>
      <feComposite in="SourceGraphic"/>
    </filter>
  </defs>
  <g id="pre_hover_active_" data-name="pre ( hover active )" transform="translate(-861.889 -1474.378)">
    <g transform="matrix(1, 0, 0, 1, 861.89, 1474.38)" filter="url(#bg)">
      <rect id="bg-2" data-name="bg" width="36" height="36" rx="15" transform="translate(42.11 35.62)" fill="#fff"/>
    </g>
    <path id="next" d="M921.659,1533.793a.648.648,0,0,0,.059-.869l-.059-.068-4.329-4.187H929.3a.661.661,0,0,0,.083-1.319l-.083,0H915.68a.681.681,0,0,0-.629.409.648.648,0,0,0,.088.652l.061.066,5.495,5.32a.7.7,0,0,0,.954.008l.009-.008Zm-3.1-7.643.068-.057,3.035-2.936a.649.649,0,0,0,0-.936.7.7,0,0,0-.895-.061l-.071.06-3.031,2.933a.651.651,0,0,0,0,.937.7.7,0,0,0,.893.061Z" fill="#c0bdcc"/>
  </g>
</svg>
