<svg xmlns="http://www.w3.org/2000/svg" width="19.997" height="19.992" viewBox="0 0 19.997 19.992">
  <path id="Schedules_icon" data-name="Schedules icon" d="M44.942,328.039A10,10,0,0,1,49.2,309a9.649,9.649,0,0,1,2.172.246,9.977,9.977,0,0,1,7.589,11.894l-.019.085a.78.78,0,1,1-1.507-.386,8.393,8.393,0,1,0-1.56,3.318.78.78,0,0,1,1.21.956A9.968,9.968,0,0,1,44.942,328.039Zm.825-5.105a.775.775,0,0,1-.51-.969l0-.005,1.525-4.879a.781.781,0,0,1,.509-.5l4.872-1.526a.67.67,0,0,1,.455,0,.763.763,0,0,1,.514.948l-.005.017-1.56,4.888a.772.772,0,0,1-.394.465l-.876.439a.781.781,0,0,1-.665-1.4l.588-.29.976-3.147-3.067.965-1.4,4.484a.771.771,0,0,1-.964.509Z" transform="translate(-39.199 -308.999)" fill="#7a86a1"/>
</svg>
