<svg xmlns="http://www.w3.org/2000/svg" width="19.997" height="19.992" viewBox="0 0 19.997 19.992">
  <path id="Schedules_icon" data-name="Schedules icon" d="M44.942,328.039A10,10,0,0,1,49.2,309a9.637,9.637,0,0,1,2.172.246,9.977,9.977,0,0,1,7.589,11.893l-.019.085a.78.78,0,1,1-1.507-.386,8.394,8.394,0,1,0-1.56,3.317.78.78,0,0,1,1.21.957A9.968,9.968,0,0,1,44.942,328.039Zm.825-5.106a.774.774,0,0,1-.51-.969l0-.005,1.525-4.879a.78.78,0,0,1,.509-.5l4.872-1.526a.669.669,0,0,1,.455,0,.762.762,0,0,1,.514.948l-.005.018-1.56,4.888a.773.773,0,0,1-.394.465l-.876.439a.781.781,0,0,1-.665-1.4l.588-.29.976-3.147-3.067.965-1.4,4.484a.771.771,0,0,1-.964.509Z" transform="translate(-39.199 -308.998)" fill="#fff"/>
</svg>
