<svg xmlns="http://www.w3.org/2000/svg" width="45" height="45" viewBox="0 0 45 45">
  <g id="search" transform="translate(-965 -873)">
    <g id="bg_text_box_copy" data-name="bg text box copy" transform="translate(965 873)" fill="#fff" stroke="#ebebeb" stroke-width="1">
      <rect width="45" height="45" rx="19" stroke="none"/>
      <rect x="0.5" y="0.5" width="44" height="44" rx="18.5" fill="none"/>
    </g>
    <path id="search_icon" data-name="search icon" d="M994.835,901.937l-2.582-2.515h0l-.061-.092a.61.61,0,0,0-.854,0h0a6.115,6.115,0,0,1-7.9.254,5.729,5.729,0,0,1-1.282-7.6,6.081,6.081,0,0,1,7.571-2.22,5.784,5.784,0,0,1,3.241,7.021.581.581,0,0,0,.137.578.62.62,0,0,0,.581.174.6.6,0,0,0,.446-.4h0a6.973,6.973,0,0,0-3.757-8.417,7.347,7.347,0,0,0-9.111,2.352,6.9,6.9,0,0,0,1.022,9.124,7.378,7.378,0,0,0,9.418.385l2.287,2.227a.618.618,0,0,0,.854,0,.585.585,0,0,0,.009-.83l-.009-.008h0Z"/>
  </g>
</svg>
