<svg xmlns="http://www.w3.org/2000/svg" width="20" height="18.677" viewBox="0 0 20 18.677">
  <g id="setting" transform="translate(-176 -997.073)">
    <path id="setting_icon" data-name="setting icon" d="M188.473,1012.058a3.706,3.706,0,0,1,3.761-3.641,3.885,3.885,0,0,1,.84.091.853.853,0,0,1,.668,1.013l0,.007a.885.885,0,0,1-1.057.643,2.025,2.025,0,0,0-2.4,1.527,1.958,1.958,0,0,0-.044.358,2,2,0,0,0,4,0,1.893,1.893,0,0,0-.027-.322.858.858,0,0,1,.724-.98h0a.88.88,0,0,1,1.015.7,3.523,3.523,0,0,1,.051.6,3.762,3.762,0,0,1-7.523,0h0Zm-11.592.853a.854.854,0,1,1,0-1.708h7.235a.854.854,0,1,1,0,1.708h-7.235Zm-.882-12.2a3.5,3.5,0,0,1,.052-.6.879.879,0,0,1,1.015-.7.858.858,0,0,1,.725.98h0a2.005,2.005,0,1,0,2-1.612,2.036,2.036,0,0,0-.475.049.88.88,0,0,1-1.06-.638.852.852,0,0,1,.656-1.019h0a3.767,3.767,0,0,1,4.511,2.772,3.625,3.625,0,0,1,.095.771,3.764,3.764,0,0,1-7.523,0Zm11.882.854a.854.854,0,1,1,0-1.708h7.233a.854.854,0,1,1,0,1.708Z" fill="#7a86a1"/>
  </g>
</svg>
