<svg xmlns="http://www.w3.org/2000/svg" width="19.728" height="19.811" viewBox="0 0 19.728 19.811">
  <path id="star_icon" data-name="star icon" d="M1072.225,265.884a.662.662,0,0,1-.347-.089l-5.069-2.68-4.465,2.413a1.5,1.5,0,0,1-2.034-.607h0l-.015-.028a1.629,1.629,0,0,1-.156-.991l.868-5.144-3.629-3.688a1.589,1.589,0,0,1,0-2.206,1.472,1.472,0,0,1,.868-.446l4.975-.759,2.213-4.628a1.493,1.493,0,0,1,2.717,0l2.223,4.644,4.992.768a1.5,1.5,0,0,1,1,.618,1.638,1.638,0,0,1-.16,2.061l-3.612,3.645.5,2.773a.774.774,0,0,1-.617.891.748.748,0,0,1-.868-.607h0l-.512-2.773a1.611,1.611,0,0,1,.434-1.395l3.621-3.67-4.992-.778a1.5,1.5,0,0,1-1.138-.891l-2.222-4.624-2.25,4.7a1.5,1.5,0,0,1-1.138.891l-4.976.759,3.594,3.664a1.581,1.581,0,0,1,.434,1.376l-.868,5.144,4.462-2.4a1.447,1.447,0,0,1,1.424,0l5.063,2.68a.782.782,0,0,1,.382.871.76.76,0,0,1-.729.594Z" transform="translate(-1056.932 -246.155)" fill="#6149cd"/>
</svg>
