<svg xmlns="http://www.w3.org/2000/svg" width="16.97" height="20" viewBox="0 0 16.97 20">
  <path id="Statement" d="M46.565,279A4.579,4.579,0,0,1,42,274.405c0-.033,0-.065,0-.1v-2.523a.747.747,0,1,1,1.493,0v2.523a3.1,3.1,0,0,0,3.011,3.181h8.006a3.16,3.16,0,0,0,2.964-3.182v-8.925l-3.809-4.014v1.316a1.829,1.829,0,0,0,1.809,1.837.755.755,0,0,1,0,1.51h0a3.334,3.334,0,0,1-3.3-3.348v-2.162H46.565a3.075,3.075,0,0,0-3.068,3v4.159a.747.747,0,1,1-1.493,0v-4.159a4.6,4.6,0,0,1,4.562-4.51h6.3a.428.428,0,0,1,.057-.012.577.577,0,0,1,.057.012h.2a.743.743,0,0,1,.539.233l5.04,5.312a.761.761,0,0,1,.211.523v9.228A4.64,4.64,0,0,1,54.514,279Zm.8-5.594a.755.755,0,0,1,0-1.51h5.371a.755.755,0,0,1,0,1.51Zm0-4.986a.755.755,0,0,1,0-1.51H50.7a.755.755,0,0,1,0,1.51Z" transform="translate(-42.002 -259)" fill="#7a86a1"/>
</svg>
