<svg xmlns="http://www.w3.org/2000/svg" width="20.027" height="20.031" viewBox="0 0 20.027 20.031">
  <path id="icon" d="M887,643.009a3.026,3.026,0,0,1-2.134-.869l-.731-.733a1.491,1.491,0,0,0-1.061-.439h-1.032a3.019,3.019,0,0,1-3.015-3.015v-1.036a1.54,1.54,0,0,0-.441-1.073l-.721-.711a3.026,3.026,0,0,1-.01-4.265l.731-.733a1.5,1.5,0,0,0,.441-1.072v-1.022a3.017,3.017,0,0,1,3.015-3.013h1.031a1.512,1.512,0,0,0,1.061-.442l.721-.721a3.02,3.02,0,0,1,4.268-.009l.732.73a1.492,1.492,0,0,0,1.061.442h1.031a3.017,3.017,0,0,1,3.015,3.014v1.033a1.488,1.488,0,0,0,.442,1.06l.721.721a3.035,3.035,0,0,1,.02,4.258l-.02.02-.01.01-.711.711a1.491,1.491,0,0,0-.442,1.063v1.031a3.018,3.018,0,0,1-3.015,3.016h-1.031a1.491,1.491,0,0,0-1.061.439l-.722.721A2.99,2.99,0,0,1,887,643.009Zm2.574-8.313a.876.876,0,1,0,.871.881v-.01a.878.878,0,0,0-.87-.871Zm-.005-5.152a.867.867,0,0,0-.617.254l-5.149,5.148a.881.881,0,0,0,0,1.241.83.83,0,0,0,.611.26.839.839,0,0,0,.621-.26l5.15-5.147a.876.876,0,0,0-.617-1.5Zm-5.143,0a.876.876,0,1,0,.871.881v-.011A.877.877,0,0,0,884.425,629.545Z" transform="translate(-876.98 -622.978)" fill="#f96767"/>
</svg>
